HIERARCHY
ROOT Hips
{
	OFFSET 0.00 0.00 0.00
	CHANNELS 6 Xposition Yposition Zposition Zrotation Xrotation Yrotation
	JOINT Chest
	{
		OFFSET 0.000000 6.275751 0.000000
		CHANNELS 3 Zrotation Xrotation Yrotation
		JOINT Neck
		{
			OFFSET 0.000000 14.296947 0.000000
			CHANNELS 3 Zrotation Xrotation Yrotation
			JOINT Head
			{
				OFFSET 0.000000 2.637461 0.000000
				CHANNELS 3 Zrotation Xrotation Yrotation
				End Site
				{
					OFFSET 0.000000 4.499004 0.000000
				}
			}
		}
		JOINT LeftCollar
		{
			OFFSET 1.120000 11.362855 1.870000
			CHANNELS 3 Zrotation Xrotation Yrotation
			JOINT LeftUpArm
			{
				OFFSET 4.565688 2.019026 -1.821179
				CHANNELS 3 Zrotation Xrotation Yrotation
				JOINT LeftLowArm
				{
					OFFSET 0.219729 -10.348825 -0.061708
					CHANNELS 3 Zrotation Xrotation Yrotation
					JOINT LeftHand
					{
						OFFSET 0.087892 -10.352228 2.178217
						CHANNELS 3 Zrotation Xrotation Yrotation
						End Site
						{
							OFFSET 0.131837 -6.692379 1.711456
						}
					}
				}
			}
		}
		JOINT RightCollar
		{
			OFFSET -1.120000 11.362855 1.870000
			CHANNELS 3 Zrotation Xrotation Yrotation
			JOINT RightUpArm
			{
				OFFSET -4.708080 2.034554 -1.821179
				CHANNELS 3 Zrotation Xrotation Yrotation
				JOINT RightLowArm
				{
					OFFSET -0.263676 -10.428555 -0.061708
					CHANNELS 3 Zrotation Xrotation Yrotation
					JOINT RightHand
					{
						OFFSET 0.000000 -10.255345 2.178217
						CHANNELS 3 Zrotation Xrotation Yrotation
						End Site
						{
							OFFSET -0.140882 -6.671274 1.711456
						}
					}
				}
			}
		}
	}
	JOINT LeftUpLeg
	{
		OFFSET 3.910000 0.000000 0.000000
		CHANNELS 3 Zrotation Xrotation Yrotation
		JOINT LeftLowLeg
		{
			OFFSET -0.441177 -17.569450 1.695613
			CHANNELS 3 Zrotation Xrotation Yrotation
			JOINT LeftFoot
			{
				OFFSET -0.043946 -17.197315 -1.478076
				CHANNELS 3 Zrotation Xrotation Yrotation
				End Site
				{
					OFFSET 0.000000 -3.933155 5.233925
				}
			}
		}
	}
	JOINT RightUpLeg
	{
		OFFSET -3.910000 0.000000 0.000000
		CHANNELS 3 Zrotation Xrotation Yrotation
		JOINT RightLowLeg
		{
			OFFSET 0.437741 -17.622387 1.695613
			CHANNELS 3 Zrotation Xrotation Yrotation
			JOINT RightFoot
			{
				OFFSET 0.000000 -17.140001 -1.478076
				CHANNELS 3 Zrotation Xrotation Yrotation
				End Site
				{
					OFFSET 0.000000 -4.038528 5.233925
				}
			}
		}
	}
}
MOTION
Frames: 2
Frame Time: 0.04166667
-9.533684 4.447926 -0.566564 -7.757381 -1.735414 89.207932 9.763572 6.289016 -1.825344 -6.106647 3.973667 -3.706973 -6.474916 -14.391472 -3.461282 -16.504230 3.973544 -3.805107 22.204674 2.533497 -28.283911 -6.862538 6.191492 4.448771 -16.292816 2.951538 -3.418231 7.634442 11.325822 5.149696 -23.069189 -18.352753 15.051558 -7.514462 8.397663 2.953842 -7.213992 2.494318 -1.543435 2.970936 -25.086460 -4.195537 -1.752307 7.093068 -1.507532 -2.633332 3.858087 0.256802 7.892136 12.803010 -28.692566 2.151862 -9.164188 8.006427 -5.641034 -12.596124 4.366460
-8.489557 4.285263 -0.621559 -8.244940 -1.784412 90.041962 8.849357 5.557910 -1.926571 -5.487280 4.119726 -4.714622 -5.790586 -15.218462 -3.167648 -15.823254 3.871795 -4.378940 22.399654 2.244878 -29.421873 -6.918557 6.131992 4.521327 -18.013180 3.059388 -3.768287 8.079588 10.124812 5.808083 -22.417845 -15.736264 18.827469 -8.070700 9.689109 2.417364 -7.600582 2.505005 -1.625679 2.430162 -27.579708 -3.852241 -1.830524 12.520144 -1.653632 -2.688550 4.545600 0.296320 8.031574 13.837914 -28.922058 2.077955 -9.176716 7.166249 -5.170825 -13.814465 4.309433
